<mxfile host="app.diagrams.net" modified="2023-12-05T05:51:07.301Z" agent="Mozilla/5.0 (Windows NT 10.0; Win64; x64) AppleWebKit/537.36 (KHTML, like Gecko) Chrome/119.0.0.0 Safari/537.36" etag="5jQfv3R9BsucGUyuYxUH" version="22.1.5" type="github">
  <diagram id="C5RBs43oDa-KdzZeNtuy" name="Page-1">
    <mxGraphModel dx="794" dy="486" grid="1" gridSize="10" guides="1" tooltips="1" connect="1" arrows="1" fold="1" page="1" pageScale="1" pageWidth="827" pageHeight="1169" math="0" shadow="0">
      <root>
        <mxCell id="WIyWlLk6GJQsqaUBKTNV-0" />
        <mxCell id="WIyWlLk6GJQsqaUBKTNV-1" parent="WIyWlLk6GJQsqaUBKTNV-0" />
        <mxCell id="z4utoaZN1TrfxKPAGZa6-3" style="edgeStyle=orthogonalEdgeStyle;rounded=0;orthogonalLoop=1;jettySize=auto;html=1;exitX=0.5;exitY=1;exitDx=0;exitDy=0;entryX=0.5;entryY=0;entryDx=0;entryDy=0;endArrow=classic;endFill=1;" edge="1" parent="WIyWlLk6GJQsqaUBKTNV-1" source="WIyWlLk6GJQsqaUBKTNV-3" target="z4utoaZN1TrfxKPAGZa6-0">
          <mxGeometry relative="1" as="geometry">
            <Array as="points">
              <mxPoint x="380" y="300" />
              <mxPoint x="380" y="300" />
            </Array>
          </mxGeometry>
        </mxCell>
        <mxCell id="z4utoaZN1TrfxKPAGZa6-8" style="edgeStyle=orthogonalEdgeStyle;rounded=0;orthogonalLoop=1;jettySize=auto;html=1;exitX=0;exitY=0.5;exitDx=0;exitDy=0;entryX=0.5;entryY=0;entryDx=0;entryDy=0;" edge="1" parent="WIyWlLk6GJQsqaUBKTNV-1" source="WIyWlLk6GJQsqaUBKTNV-3" target="z4utoaZN1TrfxKPAGZa6-9">
          <mxGeometry relative="1" as="geometry">
            <mxPoint x="250" y="300" as="targetPoint" />
          </mxGeometry>
        </mxCell>
        <mxCell id="WIyWlLk6GJQsqaUBKTNV-3" value="课题选择" style="rounded=1;whiteSpace=wrap;html=1;fontSize=12;glass=0;strokeWidth=1;shadow=0;" parent="WIyWlLk6GJQsqaUBKTNV-1" vertex="1">
          <mxGeometry x="320" y="250" width="120" height="40" as="geometry" />
        </mxCell>
        <mxCell id="z4utoaZN1TrfxKPAGZa6-2" value="" style="edgeStyle=orthogonalEdgeStyle;rounded=0;orthogonalLoop=1;jettySize=auto;html=1;endArrow=classic;endFill=1;" edge="1" parent="WIyWlLk6GJQsqaUBKTNV-1" source="z4utoaZN1TrfxKPAGZa6-0" target="z4utoaZN1TrfxKPAGZa6-1">
          <mxGeometry relative="1" as="geometry" />
        </mxCell>
        <mxCell id="z4utoaZN1TrfxKPAGZa6-0" value="数据集下载与处理" style="rounded=0;whiteSpace=wrap;html=1;" vertex="1" parent="WIyWlLk6GJQsqaUBKTNV-1">
          <mxGeometry x="330" y="310" width="100" height="30" as="geometry" />
        </mxCell>
        <mxCell id="z4utoaZN1TrfxKPAGZa6-5" value="" style="edgeStyle=orthogonalEdgeStyle;rounded=0;orthogonalLoop=1;jettySize=auto;html=1;endArrow=classic;endFill=1;" edge="1" parent="WIyWlLk6GJQsqaUBKTNV-1" source="z4utoaZN1TrfxKPAGZa6-1" target="z4utoaZN1TrfxKPAGZa6-4">
          <mxGeometry relative="1" as="geometry" />
        </mxCell>
        <mxCell id="z4utoaZN1TrfxKPAGZa6-1" value="自动化图像打标" style="rounded=0;whiteSpace=wrap;html=1;" vertex="1" parent="WIyWlLk6GJQsqaUBKTNV-1">
          <mxGeometry x="330" y="360" width="100" height="30" as="geometry" />
        </mxCell>
        <mxCell id="z4utoaZN1TrfxKPAGZa6-7" value="" style="edgeStyle=orthogonalEdgeStyle;rounded=0;orthogonalLoop=1;jettySize=auto;html=1;" edge="1" parent="WIyWlLk6GJQsqaUBKTNV-1" source="z4utoaZN1TrfxKPAGZa6-4" target="z4utoaZN1TrfxKPAGZa6-6">
          <mxGeometry relative="1" as="geometry" />
        </mxCell>
        <mxCell id="z4utoaZN1TrfxKPAGZa6-4" value="人工筛选优化" style="rounded=0;whiteSpace=wrap;html=1;" vertex="1" parent="WIyWlLk6GJQsqaUBKTNV-1">
          <mxGeometry x="330" y="410" width="100" height="30" as="geometry" />
        </mxCell>
        <mxCell id="z4utoaZN1TrfxKPAGZa6-6" value="相关算法复现" style="rounded=0;whiteSpace=wrap;html=1;" vertex="1" parent="WIyWlLk6GJQsqaUBKTNV-1">
          <mxGeometry x="330" y="460" width="100" height="30" as="geometry" />
        </mxCell>
        <mxCell id="z4utoaZN1TrfxKPAGZa6-10" style="edgeStyle=orthogonalEdgeStyle;rounded=0;orthogonalLoop=1;jettySize=auto;html=1;entryX=0;entryY=0.5;entryDx=0;entryDy=0;dashed=1;" edge="1" parent="WIyWlLk6GJQsqaUBKTNV-1" source="z4utoaZN1TrfxKPAGZa6-9" target="z4utoaZN1TrfxKPAGZa6-0">
          <mxGeometry relative="1" as="geometry" />
        </mxCell>
        <mxCell id="z4utoaZN1TrfxKPAGZa6-11" style="edgeStyle=orthogonalEdgeStyle;rounded=0;orthogonalLoop=1;jettySize=auto;html=1;exitX=1;exitY=0.5;exitDx=0;exitDy=0;entryX=0;entryY=0.5;entryDx=0;entryDy=0;dashed=1;" edge="1" parent="WIyWlLk6GJQsqaUBKTNV-1" source="z4utoaZN1TrfxKPAGZa6-9" target="z4utoaZN1TrfxKPAGZa6-6">
          <mxGeometry relative="1" as="geometry" />
        </mxCell>
        <mxCell id="z4utoaZN1TrfxKPAGZa6-12" style="edgeStyle=orthogonalEdgeStyle;rounded=0;orthogonalLoop=1;jettySize=auto;html=1;exitX=0.5;exitY=1;exitDx=0;exitDy=0;entryX=0.5;entryY=0;entryDx=0;entryDy=0;" edge="1" parent="WIyWlLk6GJQsqaUBKTNV-1" source="z4utoaZN1TrfxKPAGZa6-9" target="z4utoaZN1TrfxKPAGZa6-13">
          <mxGeometry relative="1" as="geometry">
            <mxPoint x="240" y="370" as="targetPoint" />
          </mxGeometry>
        </mxCell>
        <mxCell id="z4utoaZN1TrfxKPAGZa6-9" value="人脸老化&lt;br&gt;文献调研" style="whiteSpace=wrap;html=1;" vertex="1" parent="WIyWlLk6GJQsqaUBKTNV-1">
          <mxGeometry x="190" y="310" width="90" height="30" as="geometry" />
        </mxCell>
        <mxCell id="z4utoaZN1TrfxKPAGZa6-18" value="" style="edgeStyle=orthogonalEdgeStyle;rounded=0;orthogonalLoop=1;jettySize=auto;html=1;" edge="1" parent="WIyWlLk6GJQsqaUBKTNV-1" source="z4utoaZN1TrfxKPAGZa6-13" target="z4utoaZN1TrfxKPAGZa6-17">
          <mxGeometry relative="1" as="geometry" />
        </mxCell>
        <mxCell id="z4utoaZN1TrfxKPAGZa6-13" value="存在问题与改进" style="whiteSpace=wrap;html=1;" vertex="1" parent="WIyWlLk6GJQsqaUBKTNV-1">
          <mxGeometry x="190" y="360" width="90" height="30" as="geometry" />
        </mxCell>
        <mxCell id="z4utoaZN1TrfxKPAGZa6-20" value="" style="edgeStyle=orthogonalEdgeStyle;rounded=0;orthogonalLoop=1;jettySize=auto;html=1;" edge="1" parent="WIyWlLk6GJQsqaUBKTNV-1" source="z4utoaZN1TrfxKPAGZa6-17" target="z4utoaZN1TrfxKPAGZa6-19">
          <mxGeometry relative="1" as="geometry" />
        </mxCell>
        <mxCell id="z4utoaZN1TrfxKPAGZa6-17" value="方案修正" style="whiteSpace=wrap;html=1;" vertex="1" parent="WIyWlLk6GJQsqaUBKTNV-1">
          <mxGeometry x="190" y="410" width="90" height="30" as="geometry" />
        </mxCell>
        <mxCell id="z4utoaZN1TrfxKPAGZa6-21" style="edgeStyle=orthogonalEdgeStyle;rounded=0;orthogonalLoop=1;jettySize=auto;html=1;entryX=0;entryY=0.5;entryDx=0;entryDy=0;" edge="1" parent="WIyWlLk6GJQsqaUBKTNV-1" source="z4utoaZN1TrfxKPAGZa6-19" target="z4utoaZN1TrfxKPAGZa6-9">
          <mxGeometry relative="1" as="geometry">
            <Array as="points">
              <mxPoint x="170" y="478" />
              <mxPoint x="170" y="325" />
            </Array>
          </mxGeometry>
        </mxCell>
        <mxCell id="z4utoaZN1TrfxKPAGZa6-25" value="" style="edgeStyle=orthogonalEdgeStyle;rounded=0;orthogonalLoop=1;jettySize=auto;html=1;" edge="1" parent="WIyWlLk6GJQsqaUBKTNV-1" source="z4utoaZN1TrfxKPAGZa6-19" target="z4utoaZN1TrfxKPAGZa6-24">
          <mxGeometry relative="1" as="geometry" />
        </mxCell>
        <mxCell id="z4utoaZN1TrfxKPAGZa6-19" value="&lt;font style=&quot;font-size: 10px;&quot;&gt;可行性分析？&lt;/font&gt;" style="rhombus;whiteSpace=wrap;html=1;" vertex="1" parent="WIyWlLk6GJQsqaUBKTNV-1">
          <mxGeometry x="195" y="460" width="80" height="35" as="geometry" />
        </mxCell>
        <mxCell id="z4utoaZN1TrfxKPAGZa6-22" value="是" style="text;html=1;align=center;verticalAlign=middle;resizable=0;points=[];autosize=1;strokeColor=none;fillColor=none;" vertex="1" parent="WIyWlLk6GJQsqaUBKTNV-1">
          <mxGeometry x="195" y="490" width="40" height="30" as="geometry" />
        </mxCell>
        <mxCell id="z4utoaZN1TrfxKPAGZa6-23" value="否" style="text;html=1;align=center;verticalAlign=middle;resizable=0;points=[];autosize=1;strokeColor=none;fillColor=none;" vertex="1" parent="WIyWlLk6GJQsqaUBKTNV-1">
          <mxGeometry x="170" y="454" width="40" height="30" as="geometry" />
        </mxCell>
        <mxCell id="z4utoaZN1TrfxKPAGZa6-27" value="" style="edgeStyle=orthogonalEdgeStyle;rounded=0;orthogonalLoop=1;jettySize=auto;html=1;" edge="1" parent="WIyWlLk6GJQsqaUBKTNV-1" source="z4utoaZN1TrfxKPAGZa6-24" target="z4utoaZN1TrfxKPAGZa6-26">
          <mxGeometry relative="1" as="geometry" />
        </mxCell>
        <mxCell id="z4utoaZN1TrfxKPAGZa6-24" value="源码设计" style="whiteSpace=wrap;html=1;" vertex="1" parent="WIyWlLk6GJQsqaUBKTNV-1">
          <mxGeometry x="182.5" y="520" width="105" height="27.5" as="geometry" />
        </mxCell>
        <mxCell id="z4utoaZN1TrfxKPAGZa6-29" style="edgeStyle=orthogonalEdgeStyle;rounded=0;orthogonalLoop=1;jettySize=auto;html=1;exitX=0.5;exitY=1;exitDx=0;exitDy=0;entryX=0.5;entryY=0;entryDx=0;entryDy=0;" edge="1" parent="WIyWlLk6GJQsqaUBKTNV-1" source="z4utoaZN1TrfxKPAGZa6-26" target="z4utoaZN1TrfxKPAGZa6-28">
          <mxGeometry relative="1" as="geometry" />
        </mxCell>
        <mxCell id="z4utoaZN1TrfxKPAGZa6-26" value="创新点验证" style="whiteSpace=wrap;html=1;" vertex="1" parent="WIyWlLk6GJQsqaUBKTNV-1">
          <mxGeometry x="182.5" y="570" width="105" height="27.5" as="geometry" />
        </mxCell>
        <mxCell id="z4utoaZN1TrfxKPAGZa6-30" style="edgeStyle=orthogonalEdgeStyle;rounded=0;orthogonalLoop=1;jettySize=auto;html=1;exitX=0;exitY=0.5;exitDx=0;exitDy=0;entryX=0;entryY=0.5;entryDx=0;entryDy=0;" edge="1" parent="WIyWlLk6GJQsqaUBKTNV-1" source="z4utoaZN1TrfxKPAGZa6-28" target="z4utoaZN1TrfxKPAGZa6-24">
          <mxGeometry relative="1" as="geometry" />
        </mxCell>
        <mxCell id="z4utoaZN1TrfxKPAGZa6-28" value="&lt;font style=&quot;font-size: 10px;&quot;&gt;性能提升？&lt;/font&gt;" style="rhombus;whiteSpace=wrap;html=1;" vertex="1" parent="WIyWlLk6GJQsqaUBKTNV-1">
          <mxGeometry x="195" y="620" width="80" height="35" as="geometry" />
        </mxCell>
        <mxCell id="z4utoaZN1TrfxKPAGZa6-31" value="否" style="text;html=1;align=center;verticalAlign=middle;resizable=0;points=[];autosize=1;strokeColor=none;fillColor=none;" vertex="1" parent="WIyWlLk6GJQsqaUBKTNV-1">
          <mxGeometry x="170" y="610" width="40" height="30" as="geometry" />
        </mxCell>
        <mxCell id="z4utoaZN1TrfxKPAGZa6-32" value="是" style="text;html=1;align=center;verticalAlign=middle;resizable=0;points=[];autosize=1;strokeColor=none;fillColor=none;" vertex="1" parent="WIyWlLk6GJQsqaUBKTNV-1">
          <mxGeometry x="190" y="650" width="40" height="30" as="geometry" />
        </mxCell>
      </root>
    </mxGraphModel>
  </diagram>
</mxfile>
